<?xml version="1.0" standalone="no"?>
<!DOCTYPE svg PUBLIC "-//W3C//DTD SVG 20010904//EN"
 "http://www.w3.org/TR/2001/REC-SVG-20010904/DTD/svg10.dtd">
<svg version="1.0" xmlns="http://www.w3.org/2000/svg"
 width="500.000000pt" height="500.000000pt" viewBox="0 0 500.000000 500.000000"
 preserveAspectRatio="xMidYMid meet">

<g transform="translate(0.000000,500.000000) scale(0.100000,-0.100000)"
fill="#000000" stroke="none">
<path d="M1819 2698 c-2 -273 -1 -272 -59 -278 -45 -5 -45 -5 -54 -53 -4 -26
-6 -50 -3 -53 11 -11 111 -21 148 -14 50 9 76 33 89 79 5 20 10 147 10 284 l0
247 -65 0 -65 0 -1 -212z"/>
<path d="M2117 2903 c-9 -8 -9 -556 -1 -577 5 -14 28 -16 148 -16 166 0 208
10 257 59 69 69 58 188 -22 235 -30 18 -31 20 -14 32 55 40 74 144 38 205 -33
56 -81 69 -249 69 -83 0 -154 -3 -157 -7z m288 -123 c8 -7 15 -27 15 -46 0
-47 -29 -64 -107 -64 l-63 0 0 58 c0 32 3 62 8 66 11 12 130 0 147 -14z m4
-234 c27 -24 27 -70 1 -96 -16 -16 -33 -20 -90 -20 l-70 0 0 63 c0 35 3 67 8
71 14 15 130 1 151 -18z"/>
</g>
</svg>
