<?xml version="1.0" standalone="no"?>
<!DOCTYPE svg PUBLIC "-//W3C//DTD SVG 20010904//EN"
 "http://www.w3.org/TR/2001/REC-SVG-20010904/DTD/svg10.dtd">
<svg version="1.0" xmlns="http://www.w3.org/2000/svg"
 width="932.000000pt" height="843.000000pt" viewBox="0 0 932.000000 843.000000"
 preserveAspectRatio="xMidYMid meet">
<metadata>
Created by potrace 1.16, written by Peter Selinger 2001-2019
</metadata>
<g transform="translate(0.000000,843.000000) scale(0.100000,-0.100000)"
fill="#000000" stroke="none">
<path d="M0 4215 l0 -4215 4660 0 4660 0 0 4215 0 4215 -4660 0 -4660 0 0
-4215z m4340 3965 c45 -12 165 -82 165 -96 0 -6 26 -35 58 -64 279 -255 382
-787 276 -1430 -79 -476 -225 -855 -402 -1037 -28 -29 -46 -53 -40 -53 17 0
125 121 175 196 54 82 117 205 148 292 12 34 24 62 26 62 8 0 -3 -56 -14 -77
-10 -18 -18 -53 -21 -96 -1 -5 -5 -6 -10 -3 -5 4 -7 -3 -4 -13 3 -11 -6 -36
-21 -57 -14 -21 -26 -49 -26 -61 0 -13 -4 -23 -10 -23 -5 0 -12 -11 -16 -25
-3 -14 -11 -22 -16 -19 -6 4 -9 1 -6 -7 5 -15 -72 -132 -87 -131 -5 0 -15 -9
-22 -21 -6 -12 -16 -22 -23 -22 -6 0 -14 -5 -18 -11 -12 -19 -52 -35 -72 -29
-10 3 -21 1 -25 -4 -4 -7 1 -9 12 -5 10 3 1 -4 -19 -16 -21 -11 -38 -25 -38
-30 0 -14 -38 -32 -44 -21 -3 5 10 19 30 30 70 42 16 36 -96 -10 -105 -43
-236 -61 -341 -48 -113 14 -166 54 -151 114 13 47 50 59 173 57 130 -3 195 9
278 50 76 37 190 144 246 233 180 283 295 776 295 1264 0 190 -9 271 -41 395
-22 88 -44 135 -34 76 3 -22 -8 -3 -30 50 -38 93 -45 125 -15 70 34 -62 21
-23 -22 66 -79 163 -213 262 -383 284 -156 19 -241 -9 -352 -118 -132 -130
-197 -266 -267 -562 -57 -236 -120 -673 -131 -895 -3 -72 -11 -168 -17 -215
-7 -47 -11 -90 -10 -97 2 -7 -7 -17 -19 -23 -30 -17 -95 14 -117 54 -44 83
-15 458 73 946 8 47 20 119 26 160 5 41 19 101 30 133 10 31 19 70 19 86 0 17
4 32 9 35 14 9 53 145 45 158 -4 6 0 16 9 23 9 7 28 39 43 71 35 79 122 209
176 261 105 102 231 151 413 163 125 8 176 6 235 -10z m-356 -235 c-14 -14
-27 -25 -30 -25 -5 0 -89 -86 -124 -127 -14 -17 -40 -38 -58 -47 -18 -9 -32
-19 -32 -22 0 -3 5 -2 12 2 7 4 8 3 4 -5 -4 -6 -12 -9 -17 -6 -5 4 -9 -4 -9
-17 0 -13 -9 -29 -20 -36 -18 -11 -19 -10 -9 15 54 142 142 241 248 279 54 20
63 17 35 -11z m-669 -195 c-3 -5 5 -12 19 -16 45 -11 54 -79 16 -134 -9 -14
-20 -37 -23 -51 -10 -40 -73 -144 -85 -142 -30 7 -114 -227 -157 -432 -36
-176 -98 -543 -100 -589 -1 -39 -6 -52 -23 -64 -19 -13 -26 -12 -68 8 -31 15
-50 33 -59 53 -11 28 -13 28 -23 11 -9 -15 -11 -16 -12 -4 0 9 4 20 9 25 5 6
16 64 26 130 97 678 250 1097 434 1190 56 28 53 27 46 15z m-1410 -1270 c39
-6 100 -13 137 -15 165 -11 723 -153 723 -184 0 -17 193 -83 198 -68 2 6 46
-10 101 -36 54 -26 95 -51 92 -56 -3 -5 30 -27 73 -50 155 -80 304 -210 353
-305 29 -57 40 -165 20 -188 -19 -22 -38 -23 -46 -3 -3 9 -18 15 -36 15 -25 0
-36 8 -63 47 -71 103 -109 143 -185 196 -185 131 -473 252 -834 351 -324 88
-540 125 -788 133 -297 9 -430 -27 -561 -154 -124 -119 -153 -191 -153 -373 0
-175 59 -317 177 -426 54 -50 107 -88 94 -67 -3 5 38 -12 91 -39 94 -46 356
-139 437 -154 31 -5 35 -9 20 -14 -21 -7 145 -31 350 -51 174 -17 498 -6 654
21 282 49 482 151 620 317 25 30 60 63 78 74 30 18 34 19 61 5 47 -24 56 -67
30 -130 -34 -81 -83 -141 -169 -205 -43 -33 -75 -62 -71 -65 4 -2 40 20 80 50
65 49 141 130 183 194 14 21 16 22 17 4 2 -58 -24 -117 -77 -175 -30 -32 -63
-59 -73 -59 -10 0 -18 -4 -18 -8 0 -14 -101 -60 -145 -67 -21 -3 -47 -13 -56
-21 -10 -9 -26 -14 -36 -11 -14 3 -11 7 15 18 17 7 32 17 32 22 0 12 -45 1
-170 -40 -451 -150 -1031 -148 -1562 3 -202 58 -347 130 -473 238 -73 62 -70
59 -123 123 -24 29 -57 76 -74 105 -16 29 -27 45 -24 36 18 -55 18 -54 1 -33
-17 21 -55 135 -55 165 0 11 5 22 10 25 13 8 13 45 1 45 -5 0 -12 -6 -14 -12
-3 -7 -6 0 -6 15 -1 16 4 38 10 49 8 15 8 22 0 27 -14 9 1 224 17 244 7 8 25
47 42 86 38 94 105 188 172 241 100 80 271 144 453 169 82 12 369 6 470 -9z
m6050 -180 c17 -11 26 -20 21 -20 -4 0 6 -16 22 -35 74 -83 69 -149 -35 -499
-30 -104 -56 -203 -57 -219 -2 -47 -68 -89 -82 -52 -4 8 -14 15 -25 15 -26 0
-49 39 -49 85 0 22 11 82 25 134 17 67 21 100 14 113 -17 32 -59 14 -59 -26 0
-28 -58 -146 -88 -178 -34 -37 -75 -37 -107 -2 -14 15 -25 38 -25 52 0 45 101
355 145 448 52 108 91 146 172 169 32 10 65 21 73 25 21 12 22 12 55 -10z
m-7399 -111 c21 -12 31 -25 27 -35 -3 -7 0 -14 6 -14 17 0 71 -102 71 -136 0
-45 -27 -104 -48 -104 -9 0 -47 9 -83 21 l-67 22 -31 -22 c-32 -23 -38 -48
-20 -82 16 -30 49 -38 93 -23 53 19 71 18 102 -9 18 -16 27 -34 29 -58 1 -19
5 -42 9 -51 9 -19 -29 -82 -44 -73 -5 3 -12 0 -16 -6 -5 -8 -3 -9 7 -4 8 5 6
-1 -5 -13 -10 -12 -22 -20 -25 -17 -4 2 -25 -2 -47 -10 -47 -17 -112 -19 -151
-4 -33 12 -87 61 -115 104 -18 28 -19 28 -13 5 6 -24 5 -24 -9 -6 -9 11 -16
31 -16 45 0 16 3 21 8 14 4 -7 7 41 7 106 l0 118 40 78 c46 91 105 139 180
151 25 3 48 10 51 15 8 14 24 11 60 -12z m7008 -689 c335 -84 518 -349 477
-693 -22 -189 -117 -495 -241 -777 -115 -263 -255 -462 -385 -548 -79 -53
-208 -99 -249 -88 -63 16 -87 83 -43 123 12 12 56 38 97 58 90 45 200 148 269
251 133 198 308 618 357 857 24 115 25 300 2 347 -13 24 -16 27 -12 10 4 -17
3 -22 -4 -15 -6 6 -14 24 -17 40 -5 23 -4 26 4 15 17 -24 13 -3 -10 45 -59
125 -275 234 -444 223 -102 -7 -153 -34 -257 -136 -131 -127 -207 -249 -321
-512 -71 -165 -137 -374 -139 -442 -1 -39 -31 -64 -61 -51 -12 6 -34 15 -48
21 -15 6 -34 24 -42 41 -15 29 -14 39 8 129 45 186 119 380 220 583 162 325
328 482 560 533 82 18 165 14 279 -14z m-3198 -156 c99 -47 345 -577 437 -944
29 -114 31 -139 31 -280 0 -122 -5 -174 -21 -244 -12 -49 -19 -94 -17 -100 3
-7 -7 -23 -21 -36 -24 -23 -27 -24 -36 -7 -6 9 -22 17 -36 17 -31 0 -63 26
-63 52 0 10 -5 18 -11 18 -7 0 -8 7 -4 18 36 85 46 326 20 454 -16 78 -94 322
-101 315 -2 -2 10 -43 26 -92 51 -149 32 -129 -25 28 -29 81 -83 214 -120 295
-89 199 -90 206 -1 27 41 -82 75 -147 75 -143 2 14 -130 293 -180 382 -54 96
-67 114 -55 81 5 -16 2 -15 -14 5 -21 27 -26 55 -10 65 6 3 10 17 10 30 0 17
12 32 37 50 45 30 37 29 79 9z m2889 -62 c-6 -4 -21 -24 -35 -44 -14 -21 -29
-38 -34 -38 -10 0 -66 -61 -66 -72 0 -5 -7 -8 -15 -8 -8 0 -15 -4 -15 -10 0
-5 -8 -17 -18 -27 -35 -35 -77 -98 -74 -112 2 -7 -1 -10 -7 -6 -6 3 -11 1 -11
-5 0 -6 -4 -9 -9 -6 -5 4 -12 -7 -16 -24 -4 -16 -10 -30 -14 -30 -9 0 -35 -51
-33 -62 1 -5 -2 -8 -6 -8 -5 0 -19 -21 -31 -46 -13 -25 -25 -43 -28 -40 -7 7
119 262 165 332 50 78 139 166 195 193 41 21 73 29 52 13z m-3994 -362 c27
-15 46 -56 79 -171 68 -237 209 -565 338 -788 15 -26 27 -63 28 -91 2 -26 4
-51 5 -56 5 -27 -3 -31 -53 -26 -29 2 -63 10 -74 18 -23 14 -94 111 -134 181
-13 23 -27 40 -31 37 -4 -2 -11 1 -15 7 -5 8 -3 9 6 4 15 -9 16 -12 -31 93
-17 40 -34 71 -36 69 -2 -2 10 -35 27 -72 17 -37 28 -70 25 -73 -13 -13 -175
381 -224 547 -39 131 -39 163 -1 51 17 -47 27 -74 25 -60 -18 83 -38 159 -51
188 -21 49 -9 102 29 130 35 24 58 27 88 12z m2394 -690 c292 -15 572 -37 586
-46 5 -3 41 -5 81 -6 56 -1 66 -3 43 -9 -20 -5 -11 -6 28 -3 44 4 57 2 57 -8
0 -14 142 -62 187 -63 12 -1 26 -5 30 -9 4 -5 -3 -5 -17 -2 -14 4 2 -8 35 -26
87 -48 205 -168 243 -248 44 -90 72 -208 72 -301 0 -131 -42 -289 -103 -383
-17 -28 -31 -56 -29 -62 2 -12 -90 -94 -107 -94 -6 0 -51 -20 -99 -44 -48 -24
-105 -49 -127 -56 -22 -7 -56 -21 -76 -31 -20 -10 -54 -20 -75 -23 -21 -2 -88
-14 -149 -26 -198 -38 -410 -44 -700 -19 -229 20 -304 43 -332 101 -12 25 -8
89 6 86 3 -1 13 1 21 5 38 14 84 14 234 -3 710 -79 1175 37 1319 330 31 62 32
69 32 190 0 118 -2 129 -32 203 -40 95 -71 135 -146 188 -152 107 -331 142
-897 175 -202 11 -352 15 -513 10 -166 -5 -234 -3 -250 6 -79 41 -54 125 44
148 119 29 340 36 634 20z m-1181 -472 c13 -7 15 -12 7 -17 -8 -5 -3 -11 13
-19 14 -6 32 -21 40 -34 19 -28 16 -96 -4 -108 -22 -14 -83 -12 -200 5 -188
29 -261 7 -378 -113 -118 -120 -179 -239 -307 -593 -123 -340 -196 -512 -350
-829 -84 -173 -181 -377 -214 -453 -187 -423 -232 -729 -136 -924 35 -70 111
-153 141 -153 25 0 233 -83 228 -91 -7 -11 79 -23 171 -22 214 1 415 127 627
393 292 365 725 1375 802 1870 20 129 25 300 11 385 -12 67 -53 181 -62 171
-3 -2 3 -18 11 -35 9 -16 16 -38 15 -48 0 -10 -9 3 -19 29 -11 26 -17 54 -14
62 11 28 -40 102 -122 181 -46 44 -84 86 -84 94 0 8 -6 11 -15 7 -8 -3 -15 -1
-15 5 0 24 24 52 68 80 47 29 86 37 97 19 3 -5 1 -10 -6 -10 -7 0 8 -14 34
-31 60 -39 145 -132 190 -206 45 -74 81 -182 102 -311 16 -94 16 -111 0 -254
-28 -263 -83 -478 -210 -822 -369 -1003 -711 -1525 -1100 -1683 -137 -55 -248
-76 -373 -70 -230 12 -423 94 -555 236 -70 76 -110 160 -134 279 -11 51 -22
89 -26 86 -11 -11 -8 17 13 154 59 366 115 514 488 1285 61 126 135 293 166
370 80 206 186 496 197 539 5 21 18 52 29 70 11 18 20 40 20 49 0 10 16 40 35
69 19 29 35 60 35 70 0 10 12 32 28 48 15 16 52 58 82 92 111 129 226 178 440
190 141 7 202 4 234 -12z m3331 -168 c25 -17 45 -36 45 -41 0 -6 5 -7 10 -4 6
4 9 2 8 -3 -2 -6 34 -45 80 -87 272 -254 510 -676 709 -1260 61 -177 122 -407
149 -560 24 -137 25 -384 2 -480 -81 -330 -205 -451 -536 -520 -91 -19 -148
-19 -236 0 -169 36 -310 138 -436 317 -70 99 -172 271 -200 336 -13 29 -24 51
-26 49 -3 -2 7 -29 21 -61 32 -73 31 -85 -2 -21 -49 94 -118 271 -238 605 -89
250 -109 300 -223 560 -147 333 -155 356 -141 399 21 66 47 107 75 119 25 12
29 10 56 -20 35 -40 56 -82 196 -403 120 -275 141 -329 268 -680 141 -394 236
-603 346 -761 55 -80 168 -194 192 -194 22 0 129 -49 138 -63 12 -20 167 -22
235 -2 193 56 311 190 343 391 23 144 5 373 -45 569 -33 126 -86 297 -92 291
-3 -2 7 -41 21 -86 48 -151 25 -106 -33 65 -63 188 -147 402 -222 568 -27 60
-46 113 -43 119 9 14 -160 311 -229 402 -77 101 -185 209 -280 279 -110 81
-120 124 -45 199 27 27 73 19 133 -22z m-4231 -11 c14 -7 27 -18 30 -26 4 -9
2 -11 -6 -7 -8 5 -9 2 -4 -12 21 -50 17 -61 -62 -173 -24 -34 -40 -66 -37 -71
8 -12 -44 -62 -56 -54 -5 3 -12 -2 -15 -11 -5 -12 -9 -13 -14 -5 -9 15 -95
-90 -183 -225 -195 -300 -475 -858 -583 -1163 -101 -284 -128 -420 -129 -647
0 -190 9 -234 72 -360 20 -38 44 -96 53 -127 23 -75 10 -98 -54 -98 -53 0 -78
18 -137 99 -24 33 -46 55 -50 50 -7 -13 -45 73 -53 121 l-6 35 16 -30 c13 -27
14 -28 10 -5 -2 14 -12 75 -22 135 -63 409 133 1023 591 1850 195 353 422 639
551 696 24 11 46 24 49 29 8 12 9 12 39 -1z m604 -29 c-27 -8 -41 -17 -84 -57
-14 -13 -28 -23 -32 -23 -4 0 -13 -9 -20 -21 -7 -12 -19 -18 -27 -15 -9 3 -20
-4 -26 -16 -18 -34 -71 -88 -80 -82 -5 3 -9 0 -9 -7 0 -7 -3 -9 -7 -6 -3 4
-12 2 -20 -4 -20 -18 -16 -4 19 53 71 119 172 188 273 187 36 -1 37 -2 13 -9z
m-836 -442 c-7 -7 -12 -22 -12 -33 0 -20 -13 -43 -89 -160 -30 -46 -32 -49
-71 -94 -32 -37 -60 -90 -60 -115 0 -8 -9 -20 -20 -26 -11 -6 -18 -15 -14 -21
3 -5 1 -16 -5 -23 -18 -21 -61 -109 -61 -124 0 -7 -4 -10 -10 -7 -5 3 -10 -3
-10 -14 0 -12 -4 -21 -9 -21 -5 0 -16 -18 -24 -39 -15 -36 -37 -63 -37 -45 0
10 156 308 230 439 80 141 181 295 194 295 6 0 5 -5 -2 -12z m3101 -426 c16
-17 42 -69 61 -123 49 -134 80 -212 204 -499 147 -341 163 -375 243 -516 127
-224 251 -379 386 -479 103 -78 153 -125 153 -146 0 -9 7 -19 15 -23 16 -6 11
-30 -12 -57 -10 -12 -26 -15 -66 -11 -86 8 -176 62 -296 176 -119 115 -304
363 -375 504 -15 29 -31 50 -36 47 -13 -8 -80 130 -200 410 -128 301 -154 366
-196 489 -42 124 -44 150 -2 38 32 -87 48 -108 24 -31 -49 158 -51 168 -31
202 23 40 27 42 68 45 25 2 40 -5 60 -26z m-1447 -554 c-4 -23 -13 -56 -21
-72 -7 -17 -23 -67 -35 -111 -12 -44 -33 -109 -45 -145 -13 -36 -27 -76 -30
-90 -4 -14 -20 -52 -35 -85 -16 -33 -40 -91 -55 -130 -15 -38 -33 -77 -40 -85
-7 -8 -16 -26 -20 -40 -4 -14 -27 -67 -51 -117 -24 -51 -44 -97 -44 -102 0 -4
-7 -14 -15 -21 -8 -7 -13 -16 -10 -20 3 -5 2 -11 -3 -13 -4 -3 -27 -44 -52
-91 -24 -48 -52 -96 -63 -107 -10 -11 -17 -23 -14 -26 3 -3 1 -10 -4 -17 -5
-6 -29 -45 -53 -87 -43 -78 -79 -125 -153 -207 -24 -26 -43 -51 -43 -55 0 -8
-80 -90 -80 -82 0 2 -13 -9 -28 -23 -44 -43 -74 -66 -115 -87 -20 -11 -37 -24
-37 -28 0 -5 -7 -4 -15 3 -12 10 -15 10 -15 -4 0 -9 -8 -16 -17 -16 -10 0 -31
-7 -48 -16 -16 -9 -39 -17 -50 -19 -11 -2 -38 -8 -60 -14 -22 -6 -51 -10 -65
-10 l-25 0 25 11 c204 90 308 158 439 289 272 272 501 680 775 1383 46 117 87
228 91 245 10 46 19 38 11 -11z"/>
</g>
</svg>
